<svg xmlns="http://www.w3.org/2000/svg" viewBox="0 0 512 512"><title>アートボード 11</title><g id="レイヤー_6" data-name="レイヤー 6"><rect x="87.33" y="105.86" width="337.34" height="11"/><polygon points="197.62 97.78 210.22 78.54 216.87 88.72 248.1 40.99 269 72.94 280.36 55.58 307.98 97.78 319.93 97.78 280.36 37.31 269 54.68 248.1 22.72 216.87 70.45 210.22 60.27 185.68 97.78 197.62 97.78"/><polygon points="385.31 183.27 345.88 137.45 337.69 124.94 325.74 124.94 337.69 143.2 337.87 143.48 376.22 188.03 399.26 276.97 340.33 347.91 316.95 423.05 266.9 473.93 195.88 378.06 129.31 332.54 112.27 226.35 165.34 147.13 179.86 124.94 167.91 124.94 157.01 141.61 101.78 224.05 120.11 338.37 188.85 385.37 265.83 489.28 325.78 428.33 349.29 352.77 410.22 279.42 385.61 184.39 385.31 183.27"/><polygon points="112.27 226.35 129.31 332.54 195.88 378.06 266.9 473.93 266.9 473.93 300.81 323.9 256.63 201.83 290.37 124.94 179.86 124.94 165.34 147.13 112.27 226.35"/></g></svg>