<svg xmlns="http://www.w3.org/2000/svg" viewBox="0 0 512 512"><title>アートボード 12</title><g id="レイヤー_5" data-name="レイヤー 5"><polygon points="338.68 91.59 304.6 143.69 241.89 47.83 148.23 191 128.26 160.47 69.54 250.22 83.88 250.22 128.26 182.39 153.88 221.56 168.22 221.56 155.4 201.96 241.89 69.75 297.43 154.65 297.37 154.75 304.53 165.71 304.6 165.61 319.63 188.59 333.97 188.59 311.77 154.65 338.68 113.51 363.12 150.87 363.18 150.77 428.24 250.22 442.46 250.22 338.68 91.59"/><path d="M69.54,261.78l58.72,89.75,20-30.53,93.66,143.17,62.71-95.86,34.08,52.1L442.46,261.78Z"/></g></svg>